<svg xmlns="http://www.w3.org/2000/svg"  viewBox="0 0 80 80" width="256px" height="256px" baseProfile="basic"><path fill="#dcd5f2" d="M11.637,18.58C11.5,14.636,14.572,11,18.725,11H61.28c4.153,0,7.225,3.636,7.088,7.58 c-0.132,3.788,0.039,8.695,1.274,12.696c1.239,4.013,3.328,6.55,6.75,6.876v3.696c-3.422,0.326-5.511,2.863-6.75,6.876 c-1.235,4.001-1.406,8.908-1.274,12.696C68.506,65.364,65.433,69,61.28,69H18.725c-4.153,0-7.225-3.636-7.088-7.58 c0.132-3.788-0.04-8.695-1.275-12.696c-1.239-4.013-3.333-6.55-6.755-6.876v-3.696c3.422-0.326,5.516-2.863,6.755-6.876 C11.598,27.275,11.769,22.368,11.637,18.58z"/><path fill="#8b75a1" d="M61.28,69.5H18.725c-2.023,0-3.924-0.813-5.351-2.292c-1.496-1.548-2.312-3.664-2.237-5.806 c0.121-3.474,0.002-8.468-1.252-12.53c-1.268-4.106-3.336-6.242-6.325-6.526c-0.256-0.024-0.452-0.24-0.452-0.498v-3.695 c0-0.258,0.196-0.474,0.452-0.498c2.989-0.284,5.058-2.42,6.325-6.526c1.254-4.063,1.373-9.057,1.252-12.53l0,0 c-0.074-2.142,0.741-4.258,2.237-5.806c1.427-1.479,3.327-2.292,5.351-2.292H61.28c2.024,0,3.925,0.814,5.353,2.293 c1.495,1.548,2.31,3.664,2.235,5.805c-0.121,3.474-0.002,8.468,1.252,12.53c1.269,4.107,3.336,6.242,6.32,6.526 c0.256,0.024,0.452,0.24,0.452,0.498v3.695c0,0.258-0.196,0.474-0.452,0.498c-2.984,0.284-5.052,2.419-6.32,6.526 c-1.254,4.063-1.373,9.057-1.252,12.53c0.074,2.141-0.74,4.257-2.235,5.805C65.205,68.686,63.305,69.5,61.28,69.5z M4.107,41.406 c3.19,0.486,5.396,2.837,6.732,7.171c1.296,4.195,1.42,9.309,1.297,12.86c-0.065,1.871,0.647,3.722,1.956,5.076 c1.237,1.281,2.883,1.986,4.632,1.986H61.28c1.75,0,3.396-0.706,4.633-1.987c1.309-1.354,2.021-3.204,1.955-5.075 c-0.123-3.552,0.001-8.665,1.297-12.86c1.338-4.334,3.542-6.685,6.728-7.171v-2.813c-3.186-0.486-5.39-2.837-6.728-7.171 c-1.296-4.195-1.42-9.309-1.297-12.86c0.065-1.871-0.646-3.721-1.955-5.075C64.676,12.206,63.03,11.5,61.28,11.5H18.725 c-1.749,0-3.395,0.705-4.632,1.986c-1.309,1.354-2.021,3.205-1.956,5.076c0.123,3.552-0.001,8.665-1.297,12.86 c-1.337,4.334-3.542,6.685-6.732,7.171V41.406z"/><g><path fill="#fff" d="M45.241,39.086v-0.047c3.161-0.546,5.628-3.509,5.628-6.773c0-2.307-0.887-4.261-2.566-5.65 c-1.673-1.385-4.021-2.117-6.791-2.117H28.827v30.99h12.752c3.313,0,6.064-0.809,7.954-2.341c1.892-1.533,2.892-3.765,2.892-6.453 C52.425,42.635,49.541,39.584,45.241,39.086z M39.301,37.625h-5.426v-9.072h6.456c3.541,0,5.492,1.554,5.492,4.375 C45.822,35.957,43.506,37.625,39.301,37.625z M33.874,41.422h6.412c4.632,0,6.981,1.674,6.981,4.974 c0,3.296-2.316,5.038-6.696,5.038h-6.697V41.422z"/><path fill="#8b75a1" d="M41.578,55.989H28.327v-31.99h13.186c2.888,0,5.347,0.771,7.109,2.231 c1.797,1.487,2.747,3.574,2.747,6.035c0,2.85-1.771,5.501-4.267,6.695c3.547,1.079,5.822,4.013,5.822,7.734 c0,2.845-1.064,5.21-3.078,6.842C47.867,55.142,45.008,55.989,41.578,55.989z M29.327,54.989h12.251c3.198,0,5.84-0.771,7.64-2.229 c1.771-1.435,2.707-3.532,2.707-6.064c0-3.787-2.709-6.646-6.741-7.112l-0.442-0.052v-0.914l0.415-0.072 c2.923-0.504,5.213-3.263,5.213-6.279c0-2.153-0.824-3.974-2.384-5.266c-1.582-1.309-3.82-2.001-6.473-2.001H29.327V54.989z M40.571,51.935h-7.197V40.923h6.912c6.183,0,7.48,2.977,7.48,5.474C47.767,49.968,45.211,51.935,40.571,51.935z M34.374,50.935 h6.197c4.111,0,6.195-1.526,6.195-4.538c0-3.011-2.12-4.474-6.48-4.474h-5.912V50.935z M39.301,38.125h-5.927V28.053h6.956 c3.809,0,5.992,1.777,5.992,4.876C46.322,36.231,43.763,38.125,39.301,38.125z M34.374,37.125h4.927 c2.747,0,6.021-0.728,6.021-4.196c0-3.203-2.715-3.876-4.992-3.876h-5.956V37.125z"/></g></svg>